0
SECTION
2
HEADER
9
$INSUNITS
70
4
9
$ACADVER
1
AC1014
9
$HANDSEED
5
FFFF
0
ENDSEC
0
SECTION
2
TABLES
0
TABLE
2
VPORT
5
8
100
AcDbSymbolTable
0
ENDTAB
0
TABLE
2
LTYPE
5
5
100
AcDbSymbolTable
0
LTYPE
5
14
100
AcDbSymbolTableRecord
100
AcDbLinetypeTableRecord
2
BYBLOCK
70
0
0
LTYPE
5
15
100
AcDbSymbolTableRecord
100
AcDbLinetypeTableRecord
2
BYLAYER
70
0
0
LTYPE
5
16
100
AcDbSymbolTableRecord
100
AcDbLinetypeTableRecord
2
DASHED
70
0
3
Dashed __ __ __ __ __ __ __ __ __ __ __ __ __ _
72
65
73
2
40
0.75
49
0.5
74
0
49
-0.25
74
0
0
ENDTAB
0
TABLE
2
LAYER
5
2
100
AcDbSymbolTable
70
2
0
LAYER
5
50
100
AcDbSymbolTableRecord
100
AcDbLayerTableRecord
2
0
70
0
62
7
6
CONTINUOUS
0
ENDTAB
0
TABLE
2
STYLE
5
3
100
AcDbSymbolTable
70
1
0
STYLE
5
11
100
AcDbSymbolTableRecord
100
AcDbTextStyleTableRecord
2
STANDARD
70
0
0
ENDTAB
0
TABLE
2
VIEW
5
6
100
AcDbSymbolTable
70
0
0
ENDTAB
0
TABLE
2
UCS
5
7
100
AcDbSymbolTable
70
0
0
ENDTAB
0
TABLE
2
APPID
5
9
100
AcDbSymbolTable
70
2
0
APPID
5
12
100
AcDbSymbolTableRecord
100
AcDbRegAppTableRecord
2
ACAD
70
0
0
ENDTAB
0
TABLE
2
DIMSTYLE
5
A
100
AcDbSymbolTable
70
1
0
ENDTAB
0
TABLE
2
BLOCK_RECORD
5
1
100
AcDbSymbolTable
70
1
0
BLOCK_RECORD
5
1F
100
AcDbSymbolTableRecord
100
AcDbBlockTableRecord
2
*MODEL_SPACE
0
BLOCK_RECORD
5
1B
100
AcDbSymbolTableRecord
100
AcDbBlockTableRecord
2
*PAPER_SPACE
0
ENDTAB
0
ENDSEC
0
SECTION
2
BLOCKS
0
BLOCK
5
20
100
AcDbEntity
100
AcDbBlockBegin
2
*MODEL_SPACE
0
ENDBLK
5
21
100
AcDbEntity
100
AcDbBlockEnd
0
BLOCK
5
1C
100
AcDbEntity
100
AcDbBlockBegin
2
*PAPER_SPACE
0
ENDBLK
5
1D
100
AcDbEntity
100
AcDbBlockEnd
0
ENDSEC
0
SECTION
2
ENTITIES
0
POINT
5
100
100
AcDbEntity
8
0
100
AcDbPoint
10
0
20
0
30
0
0
POINT
5
101
100
AcDbEntity
8
0
100
AcDbPoint
10
0
20
140
30
0
0
POINT
5
102
100
AcDbEntity
8
0
100
AcDbPoint
10
0
20
99.999999999999986
30
0
0
POINT
5
103
100
AcDbEntity
8
0
100
AcDbPoint
10
-2.2204460492503131e-14
20
0
30
0
0
POINT
5
104
100
AcDbEntity
8
0
100
AcDbPoint
10
19.999999999999979
20
0
30
0
0
POINT
5
105
100
AcDbEntity
8
0
100
AcDbPoint
10
79.999999999999986
20
-1.7763568394002505e-14
30
0
0
POINT
5
106
100
AcDbEntity
8
0
100
AcDbPoint
10
-3.9968028886505635e-14
20
-40
30
0
0
POINT
5
107
100
AcDbEntity
8
0
100
AcDbPoint
10
39.999999999999979
20
0
30
0
0
POINT
5
108
100
AcDbEntity
8
0
100
AcDbPoint
10
-2.2204460492503124e-14
20
1.7763568394002505e-14
30
0
0
POINT
5
109
100
AcDbEntity
8
0
100
AcDbPoint
10
-40.000000000000014
20
3.5527136788005009e-14
30
0
0
LINE
5
110
100
AcDbEntity
8
0
100
AcDbLine
10
0
20
0
30
0
11
40
21
0
31
0
0
LINE
5
111
100
AcDbEntity
8
0
100
AcDbLine
10
40
20
0
30
0
11
40
21
100
31
0
0
LINE
5
112
100
AcDbEntity
8
0
100
AcDbLine
10
40
20
100
30
0
11
0
21
100
31
0
0
LINE
5
113
100
AcDbEntity
8
0
100
AcDbLine
10
0
20
100
30
0
11
0
21
0
31
0
0
LINE
5
114
100
AcDbEntity
8
0
100
AcDbLine
10
0
20
100
30
0
11
40
21
100
31
0
0
LINE
5
115
100
AcDbEntity
8
0
100
AcDbLine
10
40
20
100
30
0
11
40
21
140
31
0
6
DASHED
0
LINE
5
116
100
AcDbEntity
8
0
100
AcDbLine
10
40
20
140
30
0
11
0
21
140
31
0
0
LINE
5
117
100
AcDbEntity
8
0
100
AcDbLine
10
0
20
140
30
0
11
0
21
100
31
0
6
DASHED
0
LINE
5
118
100
AcDbEntity
8
0
100
AcDbLine
10
40
20
0
30
0
11
80
21
0
31
0
6
DASHED
0
LINE
5
119
100
AcDbEntity
8
0
100
AcDbLine
10
80
20
0
30
0
11
80
21
99.999999999999986
31
0
0
LINE
5
120
100
AcDbEntity
8
0
100
AcDbLine
10
80
20
99.999999999999986
30
0
11
40
21
99.999999999999986
31
0
6
DASHED
0
LINE
5
121
100
AcDbEntity
8
0
100
AcDbLine
10
40
20
99.999999999999986
30
0
11
40
21
0
31
0
0
LINE
5
122
100
AcDbEntity
8
0
100
AcDbLine
10
40
20
100
30
0
11
40
21
104.39999999999999
31
0
0
LINE
5
123
100
AcDbEntity
8
0
100
AcDbLine
10
40
20
104.39999999999999
30
0
11
46.666666666666671
21
104.39999999999999
31
0
0
LINE
5
124
100
AcDbEntity
8
0
100
AcDbLine
10
46.666666666666671
20
104.39999999999999
30
0
11
46.666666666666671
21
99.999999999999986
31
0
0
LINE
5
125
100
AcDbEntity
8
0
100
AcDbLine
10
46.666666666666671
20
99.999999999999986
30
0
11
53.333333333333343
21
99.999999999999986
31
0
0
LINE
5
126
100
AcDbEntity
8
0
100
AcDbLine
10
53.333333333333329
20
104.39999999999999
30
0
11
60
21
104.39999999999999
31
0
0
LINE
5
127
100
AcDbEntity
8
0
100
AcDbLine
10
60
20
104.39999999999999
30
0
11
60
21
99.999999999999986
31
0
0
LINE
5
128
100
AcDbEntity
8
0
100
AcDbLine
10
60
20
99.999999999999986
30
0
11
66.666666666666671
21
99.999999999999986
31
0
0
LINE
5
129
100
AcDbEntity
8
0
100
AcDbLine
10
53.333333333333329
20
100
30
0
11
53.333333333333329
21
104.39999999999999
31
0
0
LINE
5
130
100
AcDbEntity
8
0
100
AcDbLine
10
66.666666666666657
20
104.39999999999999
30
0
11
73.333333333333343
21
104.39999999999999
31
0
0
LINE
5
131
100
AcDbEntity
8
0
100
AcDbLine
10
73.333333333333343
20
104.39999999999999
30
0
11
73.333333333333343
21
99.999999999999986
31
0
0
LINE
5
132
100
AcDbEntity
8
0
100
AcDbLine
10
73.333333333333343
20
99.999999999999986
30
0
11
80
21
99.999999999999986
31
0
0
LINE
5
133
100
AcDbEntity
8
0
100
AcDbLine
10
66.666666666666657
20
100
30
0
11
66.666666666666657
21
104.39999999999999
31
0
0
LINE
5
134
100
AcDbEntity
8
0
100
AcDbLine
10
40
20
100
30
0
11
40
21
106.66666666666666
31
0
0
LINE
5
135
100
AcDbEntity
8
0
100
AcDbLine
10
40
20
106.66666666666666
30
0
11
44.400000000000006
21
106.66666666666666
31
0
0
LINE
5
136
100
AcDbEntity
8
0
100
AcDbLine
10
44.400000000000006
20
106.66666666666666
30
0
11
44.400000000000006
21
113.33333333333331
31
0
0
LINE
5
137
100
AcDbEntity
8
0
100
AcDbLine
10
44.400000000000006
20
113.33333333333331
30
0
11
40
21
113.33333333333331
31
0
0
LINE
5
138
100
AcDbEntity
8
0
100
AcDbLine
10
44.400000000000006
20
126.66666666666666
30
0
11
40
21
126.66666666666666
31
0
0
LINE
5
139
100
AcDbEntity
8
0
100
AcDbLine
10
44.400000000000006
20
120
30
0
11
44.400000000000006
21
126.66666666666666
31
0
0
LINE
5
140
100
AcDbEntity
8
0
100
AcDbLine
10
40
20
120
30
0
11
44.400000000000006
21
120
31
0
0
LINE
5
141
100
AcDbEntity
8
0
100
AcDbLine
10
40
20
113.33333333333334
30
0
11
40
21
120
31
0
0
LINE
5
142
100
AcDbEntity
8
0
100
AcDbLine
10
44.400000000000006
20
139.99999999999997
30
0
11
40
21
139.99999999999997
31
0
0
LINE
5
143
100
AcDbEntity
8
0
100
AcDbLine
10
44.400000000000006
20
133.33333333333331
30
0
11
44.400000000000006
21
139.99999999999997
31
0
0
LINE
5
144
100
AcDbEntity
8
0
100
AcDbLine
10
40
20
133.33333333333331
30
0
11
44.400000000000006
21
133.33333333333331
31
0
0
LINE
5
145
100
AcDbEntity
8
0
100
AcDbLine
10
40
20
126.66666666666666
30
0
11
40
21
133.33333333333331
31
0
0
LINE
5
146
100
AcDbEntity
8
0
100
AcDbLine
10
0
20
50
30
0
11
40
21
49.999999999999993
31
0
6
DASHED
0
LINE
5
147
100
AcDbEntity
8
0
100
AcDbLine
10
20
20
100
30
0
11
20
21
0
31
0
6
DASHED
0
LINE
5
148
100
AcDbEntity
8
0
100
AcDbLine
10
0
20
100
30
0
11
0
21
104.39999999999999
31
0
0
LINE
5
149
100
AcDbEntity
8
0
100
AcDbLine
10
0
20
126.66666666666666
30
0
11
0
21
133.33333333333331
31
0
0
LINE
5
150
100
AcDbEntity
8
0
100
AcDbLine
10
0
20
106.66666666666666
30
0
11
-4.4000000000000039
21
106.66666666666666
31
0
0
LINE
5
151
100
AcDbEntity
8
0
100
AcDbLine
10
-4.4000000000000039
20
139.99999999999997
30
0
11
0
21
139.99999999999997
31
0
0
LINE
5
152
100
AcDbEntity
8
0
100
AcDbLine
10
-6.6666666666666696
20
104.39999999999999
30
0
11
-6.6666666666666696
21
99.999999999999986
31
0
0
LINE
5
153
100
AcDbEntity
8
0
100
AcDbLine
10
-4.4000000000000039
20
126.66666666666666
30
0
11
0
21
126.66666666666666
31
0
0
LINE
5
154
100
AcDbEntity
8
0
100
AcDbLine
10
-26.666666666666661
20
100
30
0
11
-26.666666666666661
21
104.39999999999999
31
0
0
LINE
5
155
100
AcDbEntity
8
0
100
AcDbLine
10
-4.4000000000000039
20
106.66666666666666
30
0
11
-4.4000000000000039
21
113.33333333333331
31
0
0
LINE
5
156
100
AcDbEntity
8
0
100
AcDbLine
10
-4.4000000000000039
20
120
30
0
11
-4.4000000000000039
21
126.66666666666666
31
0
0
LINE
5
157
100
AcDbEntity
8
0
100
AcDbLine
10
0
20
104.39999999999999
30
0
11
-6.6666666666666696
21
104.39999999999999
31
0
0
LINE
5
158
100
AcDbEntity
8
0
100
AcDbLine
10
-13.33333333333333
20
100
30
0
11
-13.33333333333333
21
104.39999999999999
31
0
0
LINE
5
159
100
AcDbEntity
8
0
100
AcDbLine
10
-33.333333333333343
20
99.999999999999986
30
0
11
-40
21
99.999999999999986
31
0
0
LINE
5
160
100
AcDbEntity
8
0
100
AcDbLine
10
0
20
133.33333333333331
30
0
11
-4.4000000000000039
21
133.33333333333331
31
0
0
LINE
5
161
100
AcDbEntity
8
0
100
AcDbLine
10
0
20
120
30
0
11
-4.4000000000000039
21
120
31
0
0
LINE
5
162
100
AcDbEntity
8
0
100
AcDbLine
10
-20
20
104.39999999999999
30
0
11
-20
21
99.999999999999986
31
0
0
LINE
5
163
100
AcDbEntity
8
0
100
AcDbLine
10
-13.33333333333333
20
104.39999999999999
30
0
11
-20
21
104.39999999999999
31
0
0
LINE
5
164
100
AcDbEntity
8
0
100
AcDbLine
10
-20
20
99.999999999999986
30
0
11
-26.666666666666671
21
99.999999999999986
31
0
0
LINE
5
165
100
AcDbEntity
8
0
100
AcDbLine
10
-26.666666666666661
20
104.39999999999999
30
0
11
-33.333333333333343
21
104.39999999999999
31
0
0
LINE
5
166
100
AcDbEntity
8
0
100
AcDbLine
10
-6.6666666666666696
20
99.999999999999986
30
0
11
-13.333333333333339
21
99.999999999999986
31
0
0
LINE
5
167
100
AcDbEntity
8
0
100
AcDbLine
10
0
20
113.33333333333334
30
0
11
0
21
120
31
0
0
LINE
5
168
100
AcDbEntity
8
0
100
AcDbLine
10
-33.333333333333343
20
104.39999999999999
30
0
11
-33.333333333333343
21
99.999999999999986
31
0
0
LINE
5
169
100
AcDbEntity
8
0
100
AcDbLine
10
-4.4000000000000039
20
113.33333333333331
30
0
11
0
21
113.33333333333331
31
0
0
LINE
5
170
100
AcDbEntity
8
0
100
AcDbLine
10
0
20
100
30
0
11
0
21
106.66666666666666
31
0
0
LINE
5
171
100
AcDbEntity
8
0
100
AcDbLine
10
-4.4000000000000039
20
133.33333333333331
30
0
11
-4.4000000000000039
21
139.99999999999997
31
0
0
LINE
5
172
100
AcDbEntity
8
0
100
AcDbLine
10
-40
20
0
30
0
11
-40
21
99.999999999999986
31
0
0
LINE
5
173
100
AcDbEntity
8
0
100
AcDbLine
10
39.999999999999972
20
-6.6666666666666785
30
0
11
44.399999999999977
21
-6.6666666666666785
31
0
0
LINE
5
174
100
AcDbEntity
8
0
100
AcDbLine
10
-4.400000000000035
20
-20
30
0
11
-4.4000000000000377
21
-26.666666666666661
31
0
0
LINE
5
175
100
AcDbEntity
8
0
100
AcDbLine
10
-33.333333333333364
20
-4.3999999999999773
30
0
11
-33.333333333333364
21
3.5527136788005009e-14
31
0
0
LINE
5
176
100
AcDbEntity
8
0
100
AcDbLine
10
44.39999999999997
20
-26.666666666666679
30
0
11
39.999999999999964
21
-26.666666666666679
31
0
0
LINE
5
177
100
AcDbEntity
8
0
100
AcDbLine
10
-4.4000000000000412
20
-33.333333333333321
30
0
11
-4.4000000000000439
21
-39.999999999999986
31
0
0
LINE
5
178
100
AcDbEntity
8
0
100
AcDbLine
10
39.999999999999979
20
-1.7763568394002505e-14
30
0
11
39.999999999999979
21
-4.4000000000000128
31
0
0
LINE
5
179
100
AcDbEntity
8
0
100
AcDbLine
10
-13.333333333333353
20
0
30
0
11
-13.333333333333355
21
-4.399999999999995
31
0
0
LINE
5
180
100
AcDbEntity
8
0
100
AcDbLine
10
39.999999999999979
20
-1.7763568394002505e-14
30
0
11
39.999999999999972
21
-6.6666666666666785
31
0
0
LINE
5
181
100
AcDbEntity
8
0
100
AcDbLine
10
46.66666666666665
20
0
30
0
11
53.333333333333321
21
0
31
0
0
LINE
5
182
100
AcDbEntity
8
0
100
AcDbLine
10
-2.5165055224836877e-14
20
-6.6666666666666607
30
0
11
-4.4000000000000288
21
-6.6666666666666607
31
0
0
LINE
5
183
100
AcDbEntity
8
0
100
AcDbLine
10
-6.6666666666666918
20
1.7763568394002505e-14
30
0
11
-13.333333333333361
21
1.7763568394002505e-14
31
0
0
LINE
5
184
100
AcDbEntity
8
0
100
AcDbLine
10
39.999999999999957
20
-40
30
0
11
-3.9968028886505635e-14
21
-40
31
0
0
LINE
5
185
100
AcDbEntity
8
0
100
AcDbLine
10
39.999999999999972
20
-13.333333333333357
30
0
11
39.999999999999972
21
-20.000000000000018
31
0
0
LINE
5
186
100
AcDbEntity
8
0
100
AcDbLine
10
73.333333333333314
20
-1.7763568394002505e-14
30
0
11
79.999999999999986
21
-1.7763568394002505e-14
31
0
0
LINE
5
187
100
AcDbEntity
8
0
100
AcDbLine
10
59.999999999999986
20
-1.7763568394002505e-14
30
0
11
66.666666666666643
21
-1.7763568394002505e-14
31
0
0
LINE
5
188
100
AcDbEntity
8
0
100
AcDbLine
10
-6.6666666666666945
20
-4.399999999999995
30
0
11
-6.6666666666666918
21
1.7763568394002505e-14
31
0
0
LINE
5
189
100
AcDbEntity
8
0
100
AcDbLine
10
-33.333333333333364
20
3.5527136788005009e-14
30
0
11
-40.000000000000014
21
3.5527136788005009e-14
31
0
0
LINE
5
190
100
AcDbEntity
8
0
100
AcDbLine
10
-3.404683942183813e-14
20
-26.666666666666661
30
0
11
-3.7007434154171876e-14
21
-33.333333333333321
31
0
0
LINE
5
191
100
AcDbEntity
8
0
100
AcDbLine
10
39.999999999999964
20
-33.333333333333321
30
0
11
44.39999999999997
21
-33.333333333333357
31
0
0
LINE
5
192
100
AcDbEntity
8
0
100
AcDbLine
10
-2.8125649957170637e-14
20
-13.333333333333339
30
0
11
-3.1086244689504383e-14
21
-20
31
0
0
LINE
5
193
100
AcDbEntity
8
0
100
AcDbLine
10
39.999999999999972
20
-20.000000000000018
30
0
11
44.39999999999997
21
-20.000000000000018
31
0
0
LINE
5
194
100
AcDbEntity
8
0
100
AcDbLine
10
44.39999999999997
20
-20.000000000000018
30
0
11
44.39999999999997
21
-26.666666666666679
31
0
0
LINE
5
195
100
AcDbEntity
8
0
100
AcDbLine
10
44.399999999999977
20
-6.6666666666666785
30
0
11
44.399999999999977
21
-13.333333333333339
31
0
0
LINE
5
196
100
AcDbEntity
8
0
100
AcDbLine
10
-2.2204460492503131e-14
20
0
30
0
11
-2.4158453015843403e-14
21
-4.399999999999995
31
0
0
LINE
5
197
100
AcDbEntity
8
0
100
AcDbLine
10
-26.666666666666682
20
-4.3999999999999773
30
0
11
-33.333333333333364
21
-4.3999999999999773
31
0
0
LINE
5
198
100
AcDbEntity
8
0
100
AcDbLine
10
44.39999999999997
20
-33.333333333333357
30
0
11
44.399999999999963
21
-40.000000000000014
31
0
0
LINE
5
199
100
AcDbEntity
8
0
100
AcDbLine
10
53.3333333333333
20
-1.7763568394002505e-14
30
0
11
53.3333333333333
21
-4.4000000000000128
31
0
0
LINE
5
200
100
AcDbEntity
8
0
100
AcDbLine
10
-20.000000000000021
20
-4.399999999999995
30
0
11
-20.000000000000021
21
1.7763568394002505e-14
31
0
0
LINE
5
201
100
AcDbEntity
8
0
100
AcDbLine
10
59.999999999999972
20
-4.4000000000000306
30
0
11
59.999999999999986
21
-1.7763568394002505e-14
31
0
0
LINE
5
202
100
AcDbEntity
8
0
100
AcDbLine
10
-4.4000000000000439
20
-39.999999999999986
30
0
11
-3.9968028886505629e-14
21
-39.999999999999986
31
0
0
LINE
5
203
100
AcDbEntity
8
0
100
AcDbLine
10
39.999999999999979
20
-4.4000000000000128
30
0
11
46.666666666666643
21
-4.4000000000000128
31
0
0
LINE
5
204
100
AcDbEntity
8
0
100
AcDbLine
10
-13.333333333333355
20
-4.399999999999995
30
0
11
-20.000000000000021
21
-4.399999999999995
31
0
0
LINE
5
205
100
AcDbEntity
8
0
100
AcDbLine
10
-3.1086244689504383e-14
20
-20
30
0
11
-4.400000000000035
21
-20
31
0
0
LINE
5
206
100
AcDbEntity
8
0
100
AcDbLine
10
44.399999999999963
20
-40.000000000000014
30
0
11
39.999999999999957
21
-40.000000000000014
31
0
0
LINE
5
207
100
AcDbEntity
8
0
100
AcDbLine
10
44.399999999999977
20
-13.333333333333339
30
0
11
39.999999999999972
21
-13.333333333333339
31
0
0
LINE
5
208
100
AcDbEntity
8
0
100
AcDbLine
10
-4.4000000000000377
20
-26.666666666666661
30
0
11
-3.404683942183813e-14
21
-26.666666666666661
31
0
0
LINE
5
209
100
AcDbEntity
8
0
100
AcDbLine
10
66.666666666666629
20
-3.5527136788005009e-14
30
0
11
66.666666666666629
21
-4.4000000000000306
31
0
0
LINE
5
210
100
AcDbEntity
8
0
100
AcDbLine
10
-4.4000000000000288
20
-6.6666666666666607
30
0
11
-4.4000000000000323
21
-13.333333333333321
31
0
0
LINE
5
211
100
AcDbEntity
8
0
100
AcDbLine
10
39.999999999999964
20
-26.666666666666679
30
0
11
39.999999999999964
21
-33.333333333333321
31
0
0
LINE
5
212
100
AcDbEntity
8
0
100
AcDbLine
10
73.333333333333314
20
-4.4000000000000306
30
0
11
73.333333333333314
21
-1.7763568394002505e-14
31
0
0
LINE
5
213
100
AcDbEntity
8
0
100
AcDbLine
10
53.3333333333333
20
-4.4000000000000128
30
0
11
59.999999999999972
21
-4.4000000000000306
31
0
0
LINE
5
214
100
AcDbEntity
8
0
100
AcDbLine
10
-4.4000000000000323
20
-13.333333333333321
30
0
11
-2.8125649957170627e-14
21
-13.333333333333321
31
0
0
LINE
5
215
100
AcDbEntity
8
0
100
AcDbLine
10
66.666666666666629
20
-4.4000000000000306
30
0
11
73.333333333333314
21
-4.4000000000000306
31
0
0
LINE
5
216
100
AcDbEntity
8
0
100
AcDbLine
10
46.666666666666643
20
-4.4000000000000128
30
0
11
46.66666666666665
21
0
31
0
0
LINE
5
217
100
AcDbEntity
8
0
100
AcDbLine
10
-26.666666666666682
20
1.7763568394002505e-14
30
0
11
-26.666666666666682
21
-4.3999999999999773
31
0
0
LINE
5
218
100
AcDbEntity
8
0
100
AcDbLine
10
-2.4158453015843403e-14
20
-4.399999999999995
30
0
11
-6.6666666666666945
21
-4.399999999999995
31
0
0
LINE
5
219
100
AcDbEntity
8
0
100
AcDbLine
10
-20.000000000000021
20
1.7763568394002505e-14
30
0
11
-26.666666666666693
21
3.5527136788005009e-14
31
0
0
LINE
5
220
100
AcDbEntity
8
0
100
AcDbLine
10
-3.7007434154171876e-14
20
-33.333333333333321
30
0
11
-4.4000000000000412
21
-33.333333333333321
31
0
0
LINE
5
221
100
AcDbEntity
8
0
100
AcDbLine
10
-2.2204460492503131e-14
20
0
30
0
11
-2.5165055224836877e-14
21
-6.6666666666666607
31
0
0
ENDSEC
0
SECTION
2
OBJECTS
0
DICTIONARY
5
C
100
AcDbDictionary
3
ACAD_GROUP
350
D
3
ACAD_MLINESTYLE
350
17
0
DICTIONARY
5
D
100
AcDbDictionary
0
DICTIONARY
5
1A
330
C
100
AcDbDictionary
0
DICTIONARY
5
17
100
AcDbDictionary
0
ENDSEC
0
EOF
